<svg id="Layer_1" data-name="Layer 1" xmlns="http://www.w3.org/2000/svg" xmlns:xlink="http://www.w3.org/1999/xlink" viewBox="0 0 3482.93 2004.79"><defs><style>.cls-1,.cls-10,.cls-16{fill:none;}.cls-2{fill:#d3e2f9;}.cls-3{fill:#2263d6;}.cls-4{fill:url(#linear-gradient);}.cls-5{fill:#fff;}.cls-6{fill:#daebff;}.cls-7{fill:#00b77b;}.cls-8{fill:#0ace68;}.cls-9{fill:#00d967;}.cls-10{stroke:#fff;}.cls-10,.cls-16{stroke-linecap:round;stroke-linejoin:round;stroke-width:2px;}.cls-11{fill:#80c3ff;}.cls-12{fill:#006dfe;}.cls-13{fill:#2636b2;}.cls-14{fill:#7bbdff;}.cls-15{fill:#054aa9;}.cls-16{stroke:#de4d30;}.cls-17{fill:#ffab00;}.cls-18{fill:#ea756c;}.cls-19{fill:#0e2354;}.cls-20{clip-path:url(#clip-path);}.cls-21{fill:#07183a;}.cls-22{fill:#062f51;}.cls-23{fill:#153077;}.cls-24{fill:#06437f;}.cls-25{fill:#ffaca6;}.cls-26{clip-path:url(#clip-path-2);}.cls-27{fill:#fe8e00;}.cls-28{clip-path:url(#clip-path-3);}.cls-29{fill:#1e2889;}.cls-30{clip-path:url(#clip-path-4);}.cls-31{clip-path:url(#clip-path-5);}.cls-32{fill:#0041f9;}.cls-33{clip-path:url(#clip-path-6);}.cls-34{fill:#0054fc;}.cls-35{clip-path:url(#clip-path-7);}.cls-36{fill:#202d70;}.cls-37{clip-path:url(#clip-path-8);}.cls-38{fill:#88c9ff;}.cls-39{fill:url(#linear-gradient-2);}</style><linearGradient id="linear-gradient" x1="1435.23" y1="1818.92" x2="3278.16" y2="1818.92" gradientTransform="matrix(1, 0, 0, -1, 0, 3117.56)" gradientUnits="userSpaceOnUse"><stop offset="0" stop-color="#b0d8ff"/><stop offset="0.02" stop-color="#b3d9ff"/><stop offset="0.15" stop-color="#c4e1ff"/><stop offset="0.3" stop-color="#d1e7ff"/><stop offset="0.51" stop-color="#d8eaff"/><stop offset="1" stop-color="#daebff"/></linearGradient><clipPath id="clip-path" transform="translate(-509.31 -528.41)"><path class="cls-1" d="M1124.39,928.77s-58-9-62.23-72.76c0,0,27.1,7.78,57,3.26s115.25-66.07,168.11,34.63S1225,1039.09,1225,1039.09l-33.45-23.75Z"/></clipPath><clipPath id="clip-path-2" transform="translate(-509.31 -528.41)"><path class="cls-1" d="M1246.83,1082.83l5.66-5.57s22.94-6.47,45.27,37.18,72.77,170.87,46.67,291.31-74.91,170.49-74.91,170.49-149.54,0-149.54-141.39c0,0,81.24-31.11,75.06-135.49s-13.63-111.16,11.68-205.95Z"/></clipPath><clipPath id="clip-path-3" transform="translate(-509.31 -528.41)"><path class="cls-1" d="M1118.37,924.51s-14,155.06,32.61,153,53.45-53.19,53.45-53.19,16.56-4.77,13-28.1-20.07-15.56-21.82-12.8C1195.65,983.47,1164.78,909,1118.37,924.51Z"/></clipPath><clipPath id="clip-path-4" transform="translate(-509.31 -528.41)"><path class="cls-1" d="M2602.68,976.71s2.47,86.45-11.12,109.91-34,15.44-42.6-10.5V991.53Z"/></clipPath><clipPath id="clip-path-5" transform="translate(-509.31 -528.41)"><path class="cls-1" d="M2550.81,1786.19V1969s-30.87,135.84-75.33,233.39-53.1,105-53.1,105-58,4.94-87.68-37.05c0,0,91.39-232.16,92.62-318.6s-19.76-219.81,0-289a77.19,77.19,0,0,1,8.65-23.87l88.91,9.05Z"/></clipPath><clipPath id="clip-path-6" transform="translate(-509.31 -528.41)"><path class="cls-1" d="M2638.08,1647.88l16.46,5.75s17.29,149.85,23.47,259.76-8.65,404.43-8.65,404.43-51.86,34.59-97.55,0c0,0,6.17-183.39-8.65-264.07s-102.91-364.74-98.79-400.12Z"/></clipPath><clipPath id="clip-path-7" transform="translate(-509.31 -528.41)"><path class="cls-1" d="M2563.16,1158.05s74,28.34,81.38,66.62,10,429,10,429S2602.68,1694,2518.7,1685s-88.91-40.34-88.91-40.34-0.82-262.62,4.12-283.2c0,0-42.81,0-65-39.11,0,0,46.82-111.35,63.8-142,21.2-38.29,73.92-27.84,73.92-27.84S2524,1184.79,2563.16,1158.05Z"/></clipPath><clipPath id="clip-path-8" transform="translate(-509.31 -528.41)"><path class="cls-1" d="M2673.05,1356.48s6.57,54.9,18.75,71.36,111.3-61.13,111.3-61.13-1.94-66.25,39.46-92.55,11.2,77.45-5.85,105.21c0,0-62.83,87.19-122.75,113s-67.07-2.92-76.89-18-26.86-103.27-26.86-103.27Z"/></clipPath><linearGradient id="linear-gradient-2" x1="2961" y1="1852.22" x2="3897.41" y2="1852.22" xlink:href="#linear-gradient"/></defs><title>new version</title><ellipse class="cls-2" cx="2037.14" cy="1920.52" rx="237.63" ry="84.27"/><ellipse class="cls-2" cx="753.13" cy="1817.05" rx="466.47" ry="51.17"/><rect class="cls-2" x="222.9" y="1681.83" width="3260.03" height="20.43"/><path class="cls-3" d="M3278.16,623.16a94.75,94.75,0,0,0-94.75-94.75H1530a94.75,94.75,0,0,0-94.75,94.75V673H3278.16V623.16Z" transform="translate(-509.31 -528.41)"/><path class="cls-4" d="M1435.23,673V1829.51a94.76,94.76,0,0,0,94.75,94.76H3183.4a94.76,94.76,0,0,0,94.76-94.76h0V673H1435.23Z" transform="translate(-509.31 -528.41)"/><rect class="cls-5" x="1060.2" y="879.75" width="86.91" height="326.42"/><rect class="cls-5" x="1212.81" y="922.14" width="86.91" height="284.03"/><rect class="cls-5" x="1365.43" y="1006.93" width="86.91" height="199.25"/><rect class="cls-5" x="1518.04" y="943.34" width="86.91" height="262.84"/><rect class="cls-5" x="1670.66" y="1006.93" width="86.91" height="199.25"/><rect class="cls-5" x="1823.27" y="943.34" width="86.91" height="262.84"/><rect class="cls-5" x="1028.4" y="1233.73" width="915.68" height="12.72"/><path class="cls-5" d="M2270.51,771.72h914.8a18.16,18.16,0,0,1,18.16,18.16V1159.7a18.17,18.17,0,0,1-18.17,18.17H2270.51a18.17,18.17,0,0,1-18.17-18.17V789.88a18.16,18.16,0,0,1,18.16-18.16h0Z" transform="translate(-509.31 -528.41)"/><path class="cls-6" d="M3178,989.17v154.37a12.49,12.49,0,0,1-12.51,12.46H2286.87a12.48,12.48,0,0,1-12.5-12.46V804.46c81.14,0,121.55,30.34,145.23,70.19,1.55,2.55,3,5.14,4.32,7.81,40.08,75.83,28,179.77,116.13,179.77a36.07,36.07,0,0,0,9.3-1.16,25.68,25.68,0,0,0,5.42-1.77c59.28-25,50-202.14,155.48-200.87,22.53,0.28,39.36,8.91,52.64,22.7,1.27,1.38,2.55,2.76,3.76,4.26,47.22,55.41,47.88,178.89,120.38,201.3,26.14,8.09,49.22-2.87,72-21,1.44-1.17,2.93-2.32,4.37-3.6,48.21-40,96.15-108.43,170.54-91.66,2.15,0.5,4.32,1,6.53,1.67A154.68,154.68,0,0,1,3178,989.17Z" transform="translate(-509.31 -528.41)"/><path class="cls-7" d="M3178,958c-15.78.23-27.85,5.54-37.53,14.13-17.93,15.87-27.56,43-37,69.51-14.11,39.69-28.66,80.65-71.23,80.65-2.27,0-4.65-.12-7.08-0.34-27.74-2.71-48.16-25.29-66.15-56.23-11.18-19.15-21.42-41.57-31.83-64.53-29.44-64.6-59.94-131.41-116.07-133-0.66,0-1.27,0-1.88,0-17,0-30.89,6.47-42.62,17.21C2742.87,907,2727.75,946,2713,984.2c-21.87,56.52-44.45,115-95.43,116.13-36.64.78-53.3-13.07-68.24-39.3-5.76-10.19-11.29-22.25-17.61-36-11.51-25.24-25.9-56.63-49.7-93.16-16-24.46-36.31-40-58.12-49.42-58.78-25.63-128-6.87-149.55.17V876.8c23.13-7.31,87.78-23.86,145.23-2.16,25.08,9.47,48.77,26.23,67,54.24,24.08,36.81,38.53,68.42,50.16,93.82,6.53,14.28,12.11,26.52,18,36.59,14.06,24.3,29.51,36.31,62.71,35.53,47.27-1.1,68.19-55.24,90.39-112.57,15.05-38.92,30.39-78.66,55-101.13,13.06-11.9,28.72-19,48.38-18.44,59.67,1.61,90.82,70,121,136.22,10.29,22.47,20.26,44.44,31.16,63.21,17.27,30,36.65,51.75,62.32,54.3,43.84,4.32,57.79-35,72.58-76.66,9.18-26,18.58-52.41,35.64-69.3,10.84-10.84,24.85-17.71,43.95-18Z" transform="translate(-509.31 -528.41)"/><path class="cls-5" d="M1542.68,777.24h557.39a22.07,22.07,0,0,1,22.07,22.07h0a22.07,22.07,0,0,1-22.07,22.07H1542.68a22.07,22.07,0,0,1-22.07-22.07h0A22.07,22.07,0,0,1,1542.68,777.24Z" transform="translate(-509.31 -528.41)"/><path class="cls-5" d="M1542.68,873h557.39a22.07,22.07,0,0,1,22.07,22.07h0a22.07,22.07,0,0,1-22.07,22.07H1542.68a22.07,22.07,0,0,1-22.07-22.07h0A22.07,22.07,0,0,1,1542.68,873Z" transform="translate(-509.31 -528.41)"/><path class="cls-5" d="M1542.68,968.83h557.39a22.07,22.07,0,0,1,22.07,22.07h0a22.07,22.07,0,0,1-22.07,22.07H1542.68a22.07,22.07,0,0,1-22.07-22.07h0A22.07,22.07,0,0,1,1542.68,968.83Z" transform="translate(-509.31 -528.41)"/><rect class="cls-5" x="1011.3" y="536.21" width="601.53" height="44.13" rx="22.06" ry="22.06"/><rect class="cls-5" x="1011.3" y="632.01" width="601.53" height="44.13" rx="22.06" ry="22.06"/><path class="cls-8" d="M3065.4,1534c-22.6-100.11-112-174.91-219-174.91v224.55Z" transform="translate(-509.31 -528.41)"/><path class="cls-5" d="M2846.43,1583.67V1359.12c-124,0-224.55,100.54-224.55,224.55s100.53,224.54,224.55,224.54S3071,1707.68,3071,1583.67a225.51,225.51,0,0,0-5.57-49.64Z" transform="translate(-509.31 -528.41)"/><circle class="cls-6" cx="2337.12" cy="1059.03" r="171.63"/><circle class="cls-5" cx="2391.15" cy="72.31" r="24.7"/><circle class="cls-5" cx="2509.06" cy="72.31" r="24.7"/><circle class="cls-5" cx="2626.97" cy="72.31" r="24.7"/><path class="cls-7" d="M1018.81,2226.6s-38.91,77.47-108.13,106.26S744.4,2325.38,690,2282.61,582.76,2179,577.5,2133.7s86-27.46,86-27.46-40.34-55.09-57.12-94.45,2.88-80.41,58-56l55.15,24.45S677.24,1894.59,678,1841.1s32.29-133.71,91.72-77.05,65.52,175.45,65.52,175.45,13.23-50.63,32-87.67,57.91-32.23,75.94,19.38,24.94,125.52,24.94,125.52,17.23-57,45.36-48,44.53,75.88,39.81,141.46S1018.81,2226.6,1018.81,2226.6Z" transform="translate(-509.31 -528.41)"/><path class="cls-9" d="M1006.49,2087.91s-2.06-282.14-218.2-382.64c0,0-98.92,237,51.28,440.14s119.45,156,119.45,156Z" transform="translate(-509.31 -528.41)"/><line class="cls-10" x1="332.34" y1="1308.85" x2="455.31" y2="1727.86"/><rect class="cls-11" x="377.2" y="1075.73" width="842.4" height="156.33" rx="10.31" ry="10.31"/><ellipse class="cls-5" cx="461.58" cy="1153.89" rx="17.84" ry="20.91"/><ellipse class="cls-5" cx="536.45" cy="1153.89" rx="17.84" ry="20.91"/><ellipse class="cls-12" cx="611.31" cy="1153.89" rx="17.84" ry="20.91"/><rect class="cls-6" x="1000.72" y="1114.37" width="20.56" height="79.76" rx="1.85" ry="1.85"/><rect class="cls-6" x="1034.59" y="1114.37" width="20.56" height="79.76" rx="1.85" ry="1.85"/><rect class="cls-6" x="1068.46" y="1114.37" width="20.56" height="79.76" rx="1.85" ry="1.85"/><rect class="cls-6" x="1102.34" y="1114.37" width="20.56" height="79.76" rx="1.85" ry="1.85"/><rect class="cls-13" x="410.32" y="1232.06" width="774.81" height="28.18"/><rect class="cls-11" x="377.2" y="1260.24" width="842.4" height="156.33" rx="10.31" ry="10.31"/><ellipse class="cls-5" cx="461.58" cy="1338.41" rx="17.84" ry="20.91"/><ellipse class="cls-12" cx="536.45" cy="1338.41" rx="17.84" ry="20.91"/><ellipse class="cls-12" cx="611.31" cy="1338.41" rx="17.84" ry="20.91"/><rect class="cls-6" x="1001.25" y="1298.35" width="20.56" height="79.76" rx="1.85" ry="1.85"/><rect class="cls-6" x="1035.12" y="1298.35" width="20.56" height="79.76" rx="1.85" ry="1.85"/><rect class="cls-6" x="1068.99" y="1298.35" width="20.56" height="79.76" rx="1.85" ry="1.85"/><rect class="cls-6" x="1102.34" y="1298.88" width="20.56" height="79.76" rx="1.85" ry="1.85"/><rect class="cls-13" x="410.32" y="1416.57" width="774.81" height="28.18"/><rect class="cls-11" x="377.2" y="1444.75" width="842.4" height="156.33" rx="10.31" ry="10.31"/><ellipse class="cls-5" cx="461.58" cy="1522.92" rx="17.84" ry="20.91"/><ellipse class="cls-5" cx="536.45" cy="1522.92" rx="17.84" ry="20.91"/><ellipse class="cls-12" cx="611.31" cy="1522.92" rx="17.84" ry="20.91"/><rect class="cls-6" x="1001.25" y="1482.86" width="20.56" height="79.76" rx="1.85" ry="1.85"/><rect class="cls-6" x="1035.12" y="1482.86" width="20.56" height="79.76" rx="1.85" ry="1.85"/><rect class="cls-6" x="1068.99" y="1482.86" width="20.56" height="79.76" rx="1.85" ry="1.85"/><rect class="cls-6" x="1102.86" y="1482.86" width="20.56" height="79.76" rx="1.85" ry="1.85"/><rect class="cls-13" x="410.32" y="1601.08" width="774.81" height="28.18"/><rect class="cls-11" x="377.2" y="1629.26" width="842.4" height="156.33" rx="10.31" ry="10.31"/><ellipse class="cls-5" cx="461.58" cy="1707.43" rx="17.84" ry="20.91"/><ellipse class="cls-5" cx="536.45" cy="1707.43" rx="17.84" ry="20.91"/><ellipse class="cls-12" cx="611.31" cy="1707.43" rx="17.84" ry="20.91"/><rect class="cls-6" x="1001.25" y="1667.37" width="20.56" height="79.76" rx="1.85" ry="1.85"/><rect class="cls-6" x="1035.12" y="1667.37" width="20.56" height="79.76" rx="1.85" ry="1.85"/><rect class="cls-6" x="1068.99" y="1667.37" width="20.56" height="79.76" rx="1.85" ry="1.85"/><rect class="cls-6" x="1102.86" y="1667.37" width="20.56" height="79.76" rx="1.85" ry="1.85"/><rect class="cls-13" x="410.32" y="1785.59" width="774.81" height="28.18"/><circle class="cls-14" cx="479.42" cy="324.16" r="266.93"/><circle class="cls-6" cx="479.42" cy="324.16" r="244.64"/><path class="cls-15" d="M988.73,860.22a7.63,7.63,0,0,1-5.15-2L850.83,737.5a7.66,7.66,0,1,1,9.93-11.66l0.37,0.33,127.7,116.14,98.23-85.85A7.66,7.66,0,0,1,1097.14,768L993.77,858.33A7.64,7.64,0,0,1,988.73,860.22Z" transform="translate(-509.31 -528.41)"/><rect class="cls-15" x="471.08" y="511.35" width="16.03" height="42.08"/><rect class="cls-15" x="471.08" y="94.88" width="16.03" height="42.08"/><rect class="cls-15" x="249.81" y="316.14" width="42.08" height="16.03"/><rect class="cls-15" x="666.28" y="316.14" width="42.08" height="16.03"/><line class="cls-16" x1="479.42" y1="329" x2="544.22" y2="523.88"/><circle class="cls-14" cx="479.42" cy="324.16" r="28.22"/><circle class="cls-17" cx="479.42" cy="324.16" r="16.62"/><rect class="cls-18" x="1064.95" y="1220.4" width="274.35" height="62.63" rx="31.31" ry="31.31" transform="translate(-868.98 1480.06) rotate(-72.01)"/><path class="cls-18" d="M1155.69,1324.66s-168.83,46.76-183,41.64-59.47-19.29-86.3,7.3-19.1,44.61,22.75,35.24,40.18,5.45,69.76-11.06c0,0,106.13,7.57,199.89-15.48Z" transform="translate(-509.31 -528.41)"/><path class="cls-18" d="M1199.86,1014.47l34.72,11a73.74,73.74,0,0,0,2.15,22.35c-9,2.61-22.53,10.35-31.77,32.87-2.21-10-7.23-24.21-18.59-36.2Z" transform="translate(-509.31 -528.41)"/><path class="cls-19" d="M1124.39,928.77s-58-9-62.23-72.76c0,0,27.1,7.78,57,3.26s115.25-66.07,168.11,34.63S1225,1039.09,1225,1039.09l-33.45-23.75Z" transform="translate(-509.31 -528.41)"/><g class="cls-20"><path class="cls-21" d="M1106.43,928.4s-12.55-32.62,23.33-29.61,60.72,33.62,72.52,56.7,47.42,59.22,77.27,50.94l-30.1,36.38-92.59,4.79-40.33-87.11Z" transform="translate(-509.31 -528.41)"/></g><path class="cls-22" d="M887.76,1444.64l-17-4.19s-10.7,23.55-9,61.85,21.08,69.25,21.08,69.25,24.25-31.61,24.75-52.35S887.76,1444.64,887.76,1444.64Z" transform="translate(-509.31 -528.41)"/><path class="cls-18" d="M636.1,1713.61c8.23-4.46,15.61-13.14,24.55-21.62,48.68-46.17,109.06-205.58,138.17-226.15s89.82-16.06,89.82-16.06L913.73,1502s-64.84,60.25-115.92,125.45C744.29,1695.76,686.92,1754,686.92,1754,673.62,1752.4,649.32,1747.3,636.1,1713.61Z" transform="translate(-509.31 -528.41)"/><path class="cls-23" d="M515.29,1730.79c8.53-17.06,22.59-18.56,44.16-14.55,17.17,3.2,44.63,14.7,76.65-2.63,13.22,33.69,37.52,38.79,50.82,40.41h0l-33.63,59.07c-6,11.86-21.09,18.06-32.72,11.64-26.43-14.6-62.33-32.58-84.7-42.75C502.75,1766.93,506.76,1747.86,515.29,1730.79Z" transform="translate(-509.31 -528.41)"/><path class="cls-24" d="M1154.77,1463.23L1120,1435.46l-249.24,5s46.17,30.74,12,131.1c0,0,91.76,26.16,157.28,28.84s196.69-3,223.43-41.48Z" transform="translate(-509.31 -528.41)"/><path class="cls-23" d="M928,1460.94l-9.12-3.1s-12,18.79-11.7,51.4,8.61,68.59,23.75,79.71l32.45-56.87-17.81-57.46Z" transform="translate(-509.31 -528.41)"/><path class="cls-25" d="M726.83,1804.93c0.69-.42,1.38-0.81,2.07-1.25,25.42-16.06,45.5-194,56.2-246.22s44.16-79.62,87-85.65a536.47,536.47,0,0,1,82.3-4.68v116.42s-81-16.06-83.64,4c-7.36,48.84-92.18,239.53-92.18,239.53l-2.45,7.79C762.39,1833.57,743.06,1827.3,726.83,1804.93Z" transform="translate(-509.31 -528.41)"/><path class="cls-23" d="M604.45,1841.82c10.7-27.44,27.43-28.77,51.52-23.42,23.43,5.21,46.23,1.51,70.86-13.47,16.23,22.37,35.56,28.64,49.28,30l-21.24,67.48a18.12,18.12,0,0,1-22.74,11.82q-0.57-.18-1.13-0.4c-20.4-7.9-53-19.86-69.72-22.5C635.9,1887.31,593.74,1869.25,604.45,1841.82Z" transform="translate(-509.31 -528.41)"/><path class="cls-15" d="M1160.79,1480.56L1126,1452.79l-207.09,5S965.09,1488.59,931,1589c0,0,93,19.4,158.57,22.08s153.25,3.65,180-34.79Z" transform="translate(-509.31 -528.41)"/><path class="cls-17" d="M1246.83,1082.83l5.66-5.57s22.94-6.47,45.27,37.18,72.77,170.87,46.67,291.31-74.91,170.49-74.91,170.49-149.54,0-149.54-141.39c0,0,81.24-31.11,75.06-135.49s-13.63-111.16,11.68-205.95Z" transform="translate(-509.31 -528.41)"/><g class="cls-26"><path class="cls-27" d="M1156.11,1262.1l52.21-7.55,64.57-86.41s28.26,146.48-20.34,245.51S1120,1523.4,1120,1523.4l-25.76-117Z" transform="translate(-509.31 -528.41)"/></g><rect class="cls-25" x="1072.17" y="1235.94" width="274.35" height="62.63" rx="31.31" ry="31.31" transform="translate(-878.76 1497.67) rotate(-72.01)"/><path class="cls-25" d="M1170.6,1338.19s-168.83,46.76-183,41.64-59.47-19.28-86.3,7.31-19.1,44.61,22.76,35.23,40.17,5.46,69.75-11.06c0,0,98.17,9.63,191.94-13.42Z" transform="translate(-509.31 -528.41)"/><rect class="cls-19" x="359.74" y="900.66" width="237.39" height="25.43" rx="7.72" ry="7.72"/><rect class="cls-19" x="807.43" y="1207.82" width="16.72" height="237.39" rx="6.83" ry="6.83" transform="translate(-1009.41 -34.7) rotate(-26.08)"/><path class="cls-25" d="M1236.73,1047.87a64.47,64.47,0,0,0,15.76,29.39s2,17.91-16.81,21.89-29-5.74-29-5.74a70.37,70.37,0,0,0-1.76-12.67C1214.2,1058.22,1227.78,1050.48,1236.73,1047.87Z" transform="translate(-509.31 -528.41)"/><path class="cls-25" d="M1118.37,924.51s-14,155.06,32.61,153,53.45-53.19,53.45-53.19,16.56-4.77,13-28.1-20.07-15.56-21.82-12.8C1195.65,983.47,1164.78,909,1118.37,924.51Z" transform="translate(-509.31 -528.41)"/><g class="cls-28"><path class="cls-18" d="M1216.33,1023.91s4.35-21.91-14.89-19.91-20.91-18.56-36.13-37.13-26.93-37.47-51.52-27.6l-0.5-23.25,57.37,4.51,50,59,0.5,36.3Z" transform="translate(-509.31 -528.41)"/></g><path class="cls-29" d="M2458.2,2415.86s-7.64,20.37-18.82,30.78c-62.56-25.73-119.84-66.08-141.26-82,1.23-4.84,3.74-10.11,7.22-15.84,6.49-10.71,24.67-41.84,37.1-63.23,5.17,10.56,18.81,28.16,54.35,38.86-11.55,26.85,25,53.78,45.3,67C2462.88,2405,2458.2,2415.86,2458.2,2415.86Z" transform="translate(-509.31 -528.41)"/><path class="cls-18" d="M2413.16,2293.48s-1,1.39-15.4,28.91c-0.35.68-.69,1.37-1,2.06-35.54-10.7-49.18-28.3-54.35-38.86,7.19-12.38,12.48-21.47,12.48-21.47Z" transform="translate(-509.31 -528.41)"/><path class="cls-19" d="M2439.38,2446.64a22.68,22.68,0,0,1-8.79,5.4c-15.77,4.63-109.24-53.37-123.21-63.41-9.24-6.62-11.65-14.5-9.26-24C2319.54,2380.56,2376.82,2420.91,2439.38,2446.64Z" transform="translate(-509.31 -528.41)"/><path class="cls-29" d="M2750.84,2411.1s2.15,21.65-3.27,35.94c-67.49,4.59-136.71-6.28-163-11.06a60.33,60.33,0,0,1-.53-17.4c1.09-12.48,3.62-48.44,5.32-73.12,9.3,7.19,29.32,16.94,65.93,10.82,1.51,29.18,46.22,37.17,70.26,40C2750.23,2399.29,2750.84,2411.1,2750.84,2411.1Z" transform="translate(-509.31 -528.41)"/><path class="cls-25" d="M2656.32,2321.26s-0.28,1.69-1,32.74c0,0.77,0,1.53.05,2.28-36.61,6.12-56.63-3.63-65.93-10.82,1-14.28,1.69-24.78,1.69-24.78Z" transform="translate(-509.31 -528.41)"/><path class="cls-19" d="M2747.57,2447a22.7,22.7,0,0,1-5.5,8.73c-12.09,11.12-121.58.43-138.54-2.39-11.22-1.85-16.87-7.85-18.91-17.4C2610.86,2440.76,2680.08,2451.63,2747.57,2447Z" transform="translate(-509.31 -528.41)"/><polygon class="cls-17" points="2348.79 655.62 2206.36 601.28 2135.12 861.53 2264.81 921.53 2348.79 655.62"/><path class="cls-25" d="M2602.68,976.71s2.47,86.45-11.12,109.91-34,15.44-42.6-10.5V991.53Z" transform="translate(-509.31 -528.41)"/><g class="cls-30"><path class="cls-18" d="M2606.49,985.11s-31.22,22.7-42.43,40.56c-8.38,13.34-4.62,69.57-4.62,69.57l-20.7-9.69s-0.66-38.87,0-58.82,14.44-47.52,14.44-47.52,19-20.74,28.89-23.83,17.06,0,17.06,0Z" transform="translate(-509.31 -528.41)"/></g><path class="cls-18" d="M2559.69,1086s-7.74,41.63,3.47,72c0,0-9.07,16.55-28,17.61s-28.55-13.87-28.55-13.87,5.07-19.75,0-52Z" transform="translate(-509.31 -528.41)"/><path class="cls-18" d="M2421.22,1349s-35,37-20.17,60.51,30.46,52.69,30.46,52.69l-2.88,64.62s-79.85-86.44-85.2-115.26,13.17-64.62,30.87-91.79Z" transform="translate(-509.31 -528.41)"/><path class="cls-12" d="M2550.81,1786.19V1969s-30.87,135.84-75.33,233.39-53.1,105-53.1,105-58,4.94-87.68-37.05c0,0,91.39-232.16,92.62-318.6s-19.76-219.81,0-289a77.19,77.19,0,0,1,8.65-23.87l88.91,9.05Z" transform="translate(-509.31 -528.41)"/><g class="cls-31"><path class="cls-32" d="M2409.05,1669.78s54.08,139.6,60.26,228S2483,2127.5,2454.54,2260l117.33-269.47v-232.7l-47-110-102.5-19.31Z" transform="translate(-509.31 -528.41)"/></g><path class="cls-12" d="M2638.08,1647.88l16.46,5.75s17.29,149.85,23.47,259.76-8.65,404.43-8.65,404.43-51.86,34.59-97.55,0c0,0,6.17-183.39-8.65-264.07s-102.91-364.74-98.79-400.12Z" transform="translate(-509.31 -528.41)"/><g class="cls-33"><path class="cls-34" d="M2561.93,1657.4s-11.12,47.79,14.81,153.74,38.29,184.65,39.52,271.63-14.82,277.78-14.82,277.78l-39.51-6.45-130.45-671,53.88-97.38Z" transform="translate(-509.31 -528.41)"/></g><path class="cls-29" d="M2563.16,1158.05s74,28.34,81.38,66.62,10,429,10,429S2602.68,1694,2518.7,1685s-88.91-40.34-88.91-40.34-0.82-262.62,4.12-283.2c0,0-42.81,0-65-39.11,0,0,46.82-111.35,63.8-142,21.2-38.29,73.92-27.84,73.92-27.84S2524,1184.79,2563.16,1158.05Z" transform="translate(-509.31 -528.41)"/><g class="cls-35"><path class="cls-36" d="M2602.94,1222.37s-21.12-11.94-25.64,8.23-32.24,172.9,18.28,235.87,65.28,42.4,78.24,7S2637.64,1242.54,2602.94,1222.37Z" transform="translate(-509.31 -528.41)"/><path class="cls-36" d="M2517.88,1151.13s-23.87-4.48-27.17,65,4.12,487.13,11.53,498.13-89.07-40.88-89.07-40.88-147.21-380.35-139.8-391,228.87-155.6,228.87-155.6Z" transform="translate(-509.31 -528.41)"/></g><path class="cls-25" d="M2673.05,1356.48s6.57,54.9,18.75,71.36,111.3-61.13,111.3-61.13-1.94-66.25,39.46-92.55,11.2,77.45-5.85,105.21c0,0-62.83,87.19-122.75,113s-67.07-2.92-76.89-18-26.86-103.27-26.86-103.27Z" transform="translate(-509.31 -528.41)"/><g class="cls-37"><path class="cls-18" d="M2679.51,1380.7s-45.14,3.83-39.23,32.12,2.62,68.52,48.25,68.64,77.62-24.22,77.62-24.22L2725,1508.61h-62l-41.71-18.92s-27.22-66.82-27.22-71,8.85-55.37,8.85-55.37l67.56-15.07,10.68,22.94Z" transform="translate(-509.31 -528.41)"/></g><path class="cls-29" d="M2676.19,1353.51s-12.49-104.07-28.38-136.7-54-30-65.55,0-9.68,160.61-9.68,160.61S2636,1408.9,2676.19,1353.51Z" transform="translate(-509.31 -528.41)"/><path class="cls-19" d="M2600.52,980.77s14.81-13.33,18-38.33,8.27-69.46-28.2-75.34-39.31,11.32-55.49,13.68-97.84-1.18-122.15,71.36c-16.84,50.26,19.68,99.7,49.09,129.7s31.76,30.88,31.76,30.88,21,7,47.06-3.23l14-21.22s5-6.28-.48-22-6.56-30.39.3-39.41,14.6-25.09,15-38C2569.45,988.81,2583.17,994.3,2600.52,980.77Z" transform="translate(-509.31 -528.41)"/><rect class="cls-38" x="2437.52" y="366.77" width="950.53" height="662.31" rx="57.75" ry="57.75"/><path class="cls-3" d="M3897.36,951.94a56.77,56.77,0,0,0-56.77-56.76H3017.71A56.76,56.76,0,0,0,2961,951.94v34.15h936.41Z" transform="translate(-509.31 -528.41)"/><path class="cls-39" d="M2961,986.09v501.74a56.76,56.76,0,0,0,56.76,56.76h822.88a56.77,56.77,0,0,0,56.77-56.76V986.09H2961Z" transform="translate(-509.31 -528.41)"/><circle class="cls-5" cx="3109.06" cy="412.22" r="19.05"/><circle class="cls-5" cx="3199.65" cy="412.22" r="19.05"/><circle class="cls-5" cx="3290.24" cy="412.22" r="19.05"/><path class="cls-12" d="M3326.35,1056H3148.46c-3.62,0-6.55-3.45-6.55-7.71h0c0-4.25,2.93-7.7,6.55-7.7h177.89c3.61,0,6.54,3.45,6.54,7.7h0C3332.89,1052.59,3330,1056,3326.35,1056Z" transform="translate(-509.31 -528.41)"/><path class="cls-9" d="M3297,1125.08H3119.13c-3.62,0-6.55-3.45-6.55-7.7h0c0-4.26,2.93-7.71,6.55-7.71H3297c3.61,0,6.55,3.45,6.55,7.71h0C3303.57,1121.63,3300.63,1125.08,3297,1125.08Z" transform="translate(-509.31 -528.41)"/><path class="cls-12" d="M3674.25,1125.08H3368.77c-3.61,0-6.55-3.45-6.55-7.7h0c0-4.26,2.94-7.71,6.55-7.71h305.48c3.62,0,6.55,3.45,6.55,7.71h0C3680.8,1121.63,3677.87,1125.08,3674.25,1125.08Z" transform="translate(-509.31 -528.41)"/><path class="cls-12" d="M3480.16,1056h-89.9c-3.62,0-6.55-3.45-6.55-7.71h0c0-4.25,2.93-7.7,6.55-7.7h89.9c3.62,0,6.55,3.45,6.55,7.7h0C3486.71,1052.59,3483.78,1056,3480.16,1056Z" transform="translate(-509.31 -528.41)"/><path class="cls-12" d="M3638,1056h-89.91c-3.61,0-6.54-3.45-6.54-7.71h0c0-4.25,2.93-7.7,6.54-7.7H3638c3.61,0,6.54,3.45,6.54,7.7h0C3644.52,1052.59,3641.59,1056,3638,1056Z" transform="translate(-509.31 -528.41)"/><path class="cls-12" d="M3238.15,1194.12H3121.28c-3.61,0-6.54-3.45-6.54-7.7h0c0-4.26,2.93-7.71,6.54-7.71h116.87c3.61,0,6.54,3.45,6.54,7.71h0C3244.69,1190.67,3241.76,1194.12,3238.15,1194.12Z" transform="translate(-509.31 -528.41)"/><path class="cls-9" d="M3480.5,1194.12H3302.61c-3.62,0-6.55-3.45-6.55-7.7h0c0-4.26,2.93-7.71,6.55-7.71H3480.5c3.62,0,6.55,3.45,6.55,7.71h0C3487.05,1190.67,3484.12,1194.12,3480.5,1194.12Z" transform="translate(-509.31 -528.41)"/><path class="cls-12" d="M3610.22,1194.12h-66.43c-3.62,0-6.55-3.45-6.55-7.7h0c0-4.26,2.93-7.71,6.55-7.71h66.43c3.62,0,6.55,3.45,6.55,7.71h0C3616.77,1190.67,3613.84,1194.12,3610.22,1194.12Z" transform="translate(-509.31 -528.41)"/><path class="cls-12" d="M3348.18,1263.17H3244c-3.62,0-6.55-3.45-6.55-7.71h0c0-4.25,2.93-7.7,6.55-7.7h104.23c3.61,0,6.54,3.45,6.54,7.7h0C3354.72,1259.72,3351.79,1263.17,3348.18,1263.17Z" transform="translate(-509.31 -528.41)"/><path class="cls-12" d="M3597.48,1263.17H3419.59c-3.62,0-6.55-3.45-6.55-7.71h0c0-4.25,2.93-7.7,6.55-7.7h177.89c3.61,0,6.55,3.45,6.55,7.7h0C3604,1259.72,3601.09,1263.17,3597.48,1263.17Z" transform="translate(-509.31 -528.41)"/><path class="cls-12" d="M3540.46,1332.21H3207.12c-3.62,0-6.55-3.45-6.55-7.7h0c0-4.26,2.93-7.71,6.55-7.71h333.34c3.61,0,6.54,3.45,6.54,7.71h0C3547,1328.76,3544.07,1332.21,3540.46,1332.21Z" transform="translate(-509.31 -528.41)"/><path class="cls-12" d="M3789.76,1332.21H3588.4c-3.61,0-6.54-3.45-6.54-7.7h0c0-4.26,2.93-7.71,6.54-7.71h201.36c3.61,0,6.55,3.45,6.55,7.71h0C3796.31,1328.76,3793.37,1332.21,3789.76,1332.21Z" transform="translate(-509.31 -528.41)"/><path class="cls-12" d="M3297,1401.26H3119.13c-3.62,0-6.55-3.45-6.55-7.71h0c0-4.25,2.93-7.7,6.55-7.7H3297c3.61,0,6.55,3.45,6.55,7.7h0C3303.57,1397.81,3300.63,1401.26,3297,1401.26Z" transform="translate(-509.31 -528.41)"/><path class="cls-9" d="M3512.29,1401.26H3334.4c-3.62,0-6.55-3.45-6.55-7.71h0c0-4.25,2.93-7.7,6.55-7.7h177.89c3.61,0,6.55,3.45,6.55,7.7h0C3518.84,1397.81,3515.9,1401.26,3512.29,1401.26Z" transform="translate(-509.31 -528.41)"/><path class="cls-12" d="M3529.42,1470.3H3259.23c-3.62,0-6.55-3.45-6.55-7.7h0c0-4.26,2.93-7.71,6.55-7.71h270.19c3.61,0,6.54,3.45,6.54,7.71h0C3536,1466.85,3533,1470.3,3529.42,1470.3Z" transform="translate(-509.31 -528.41)"/><rect class="cls-12" x="2516.32" y="512.22" width="13.09" height="15.41"/><rect class="cls-12" x="2516.32" y="581.26" width="13.09" height="15.41"/><rect class="cls-12" x="2516.32" y="650.3" width="13.09" height="15.41"/><rect class="cls-12" x="2516.32" y="719.35" width="13.09" height="15.41"/><rect class="cls-12" x="2516.32" y="788.39" width="13.09" height="15.41"/><rect class="cls-12" x="2516.32" y="857.44" width="13.09" height="15.41"/><rect class="cls-12" x="2516.32" y="926.48" width="13.09" height="15.41"/><path class="cls-12" d="M3721,1501.73l-47.71-23.86a4.77,4.77,0,0,1-2.44-4.33v-5.13a4.79,4.79,0,0,1,2.44-4.33l47.71-23.85c2.64-1.32,5.57,1,5.57,4.33v1.83a4.79,4.79,0,0,1-2.48,4.36l-32.77,15.87c-3.3,1.6-3.3,7.11,0,8.71l32.77,15.88a4.76,4.76,0,0,1,2.48,4.35v1.83C3726.55,1500.77,3723.62,1503.05,3721,1501.73Z" transform="translate(-509.31 -528.41)"/><path class="cls-12" d="M3764.24,1426.76l-22,89.7a4.15,4.15,0,0,1-3.84,3.4h0c-2.67,0-4.59-3-3.85-6l22-89.69a4.16,4.16,0,0,1,3.85-3.4h0C3763.06,1420.75,3765,1423.75,3764.24,1426.76Z" transform="translate(-509.31 -528.41)"/><path class="cls-12" d="M3825.49,1477.87l-47.72,23.86c-2.63,1.32-5.56-1-5.56-4.34v-1.83a4.76,4.76,0,0,1,2.48-4.35l32.76-15.88c3.3-1.6,3.3-7.11,0-8.71l-32.76-15.87a4.79,4.79,0,0,1-2.48-4.36v-1.83c0-3.37,2.93-5.65,5.56-4.33l47.72,23.85a4.81,4.81,0,0,1,2.43,4.33v5.13A4.78,4.78,0,0,1,3825.49,1477.87Z" transform="translate(-509.31 -528.41)"/></svg>