<svg xmlns="http://www.w3.org/2000/svg" xmlns:xlink="http://www.w3.org/1999/xlink" viewBox="0 0 4680 3120"><defs><style>.cls-1{fill:#0e2354;}.cls-2{fill:#ffab00;}.cls-3{fill:#ffaca6;}.cls-4{fill:#006dfe;}.cls-5{fill:#1e2889;}.cls-6{fill:#fff;}.cls-7{fill:#2b3033;}.cls-8{fill:#a3a7aa;}.cls-9{fill:#d3e2f9;}.cls-10{fill:#2263d6;}.cls-11{fill:url(#linear-gradient);}.cls-12{fill:#daebff;}.cls-13{fill:#00b77b;}.cls-14{fill:#0ace68;}.cls-15{fill:#00d967;}.cls-16,.cls-26{fill:none;stroke-linecap:round;stroke-linejoin:round;stroke-width:2px;}.cls-16{stroke:#fff;}.cls-17{fill:#d1e3ff;}.cls-18{fill:#e3eeff;}.cls-19{fill:#f5fcff;}.cls-20{fill:#e2eeff;}.cls-21{fill:#80c3ff;}.cls-22{fill:#2636b2;}.cls-23{fill:#ebf5ff;}.cls-24{fill:#7bbdff;}.cls-25{fill:#054aa9;}.cls-26{stroke:#de4d30;}.cls-27{fill:#ea756c;}.cls-28{clip-path:url(#clip-path);}.cls-29{fill:#07183a;}.cls-30{fill:#062f51;}.cls-31{fill:#153077;}.cls-32{fill:#06437f;}.cls-33{clip-path:url(#clip-path-2);}.cls-34{fill:#fe8e00;}.cls-35{clip-path:url(#clip-path-3);}.cls-36{clip-path:url(#clip-path-4);}.cls-37{clip-path:url(#clip-path-5);}.cls-38{fill:#0041f9;}.cls-39{clip-path:url(#clip-path-6);}.cls-40{fill:#0054fc;}.cls-41{clip-path:url(#clip-path-7);}.cls-42{fill:#202d70;}.cls-43{clip-path:url(#clip-path-8);}.cls-44{fill:#88c9ff;}.cls-45{fill:url(#linear-gradient-2);}</style><linearGradient id="linear-gradient" x1="1435.23" y1="1298.65" x2="3278.16" y2="1298.65" gradientUnits="userSpaceOnUse"><stop offset="0" stop-color="#b0d8ff"/><stop offset="0.02" stop-color="#b3d9ff"/><stop offset="0.15" stop-color="#c4e1ff"/><stop offset="0.3" stop-color="#d1e7ff"/><stop offset="0.51" stop-color="#d8eaff"/><stop offset="1" stop-color="#daebff"/></linearGradient><clipPath id="clip-path"><path class="cls-1" d="M1124.39,928.77s-58-9-62.23-72.76c0,0,27.1,7.78,57,3.26s115.25-66.07,168.11,34.63S1225,1039.09,1225,1039.09l-33.45-23.75Z"/></clipPath><clipPath id="clip-path-2"><path class="cls-2" d="M1246.83,1082.83l5.66-5.57s22.94-6.47,45.27,37.18,72.77,170.87,46.67,291.31-74.91,170.49-74.91,170.49-149.54,0-149.54-141.39c0,0,81.24-31.11,75.06-135.49s-13.63-111.16,11.68-205.95Z"/></clipPath><clipPath id="clip-path-3"><path class="cls-3" d="M1118.37,924.51s-14,155.06,32.61,153,53.45-53.19,53.45-53.19,16.56-4.77,13-28.1-20.07-15.56-21.82-12.8C1195.65,983.47,1164.78,909,1118.37,924.51Z"/></clipPath><clipPath id="clip-path-4"><path class="cls-3" d="M2602.68,976.71s2.47,86.45-11.12,109.91-34,15.44-42.6-10.5V991.53Z"/></clipPath><clipPath id="clip-path-5"><path class="cls-4" d="M2550.81,1786.19V1969s-30.87,135.84-75.33,233.39-53.1,105-53.1,105-58,4.94-87.68-37.05c0,0,91.39-232.16,92.62-318.6s-19.76-219.81,0-289a77.19,77.19,0,0,1,8.65-23.87l88.91,9.05Z"/></clipPath><clipPath id="clip-path-6"><path class="cls-4" d="M2638.08,1647.88l16.46,5.75s17.29,149.85,23.47,259.76-8.65,404.43-8.65,404.43-51.86,34.59-97.55,0c0,0,6.17-183.39-8.65-264.07s-102.91-364.74-98.79-400.12Z"/></clipPath><clipPath id="clip-path-7"><path class="cls-5" d="M2563.16,1158.05s74,28.34,81.38,66.62,10,429,10,429-51.86,40.36-135.84,31.3-88.91-40.34-88.91-40.34-.82-262.62,4.12-283.2c0,0-42.81,0-65-39.11,0,0,46.82-111.35,63.8-142,21.2-38.29,73.92-27.84,73.92-27.84S2524,1184.79,2563.16,1158.05Z"/></clipPath><clipPath id="clip-path-8"><path class="cls-3" d="M2673.05,1356.48s6.57,54.9,18.75,71.36,111.3-61.13,111.3-61.13-1.94-66.25,39.46-92.55,11.2,77.45-5.85,105.21c0,0-62.83,87.19-122.75,113s-67.07-2.92-76.89-18-26.86-103.27-26.86-103.27Z"/></clipPath><linearGradient id="linear-gradient-2" x1="2960.95" y1="1265.34" x2="3897.36" y2="1265.34" xlink:href="#linear-gradient"/></defs><title>09</title><g id="Layer_2" data-name="Layer 2"><g id="Layer_1-2" data-name="Layer 1"><rect class="cls-6" width="4680" height="3120"/><path class="cls-7" d="M1897.25,2883.23v-64h22.41q11.65,0,17.67,4.46t6,13.07a14.43,14.43,0,0,1-2.42,8.28,14,14,0,0,1-6.72,5.26,13.51,13.51,0,0,1,7.76,5,14.68,14.68,0,0,1,2.83,9.14q0,9.23-5.89,14t-16.78,4.83Zm13.19-37.18h9.75c6.65-.11,10-2.77,10-8,0-2.9-.85-5-2.53-6.26s-4.34-1.92-8-1.92h-9.22Zm0,9.32v17.27h11.29a10.89,10.89,0,0,0,7.27-2.22,7.62,7.62,0,0,0,2.62-6.13q0-8.79-9.1-8.92Z"/><path class="cls-7" d="M1990.81,2870.05H1967.7l-4.4,13.18h-14l23.82-64h12.22l24,64h-14Zm-19.55-10.68h16l-8-23.95Z"/><path class="cls-7" d="M2064.55,2861.92q-.75,10.32-7.62,16.26t-18.13,5.93q-12.3,0-19.36-8.28t-7-22.75v-3.91a38.34,38.34,0,0,1,3.25-16.26,24.42,24.42,0,0,1,9.29-10.78,26,26,0,0,1,14-3.76q11.08,0,17.85,5.93t7.82,16.66h-13.18q-.49-6.21-3.45-9t-9-2.79q-6.59,0-9.86,4.72t-3.36,14.66v4.83q0,10.38,3.14,15.16t9.91,4.79q6.1,0,9.12-2.79t3.45-8.63Z"/><path class="cls-7" d="M2093.25,2857.57l-6.86,7.38v18.28h-13.18v-64h13.18v29l5.8-7.95,16.31-21.05h16.21L2102,2847.68l23.38,35.55h-15.69Z"/><path class="cls-7" d="M2191.25,2855.41h-25.32v17.23h29.71v10.59h-42.89v-64h42.8v10.67h-29.62v15.25h25.32Z"/><path class="cls-7" d="M2255.41,2883.23h-13.19l-25.66-42.1v42.1h-13.18v-64h13.18l25.71,42.18v-42.18h13.14Z"/><path class="cls-7" d="M2266.92,2883.23v-64h19.69a29.84,29.84,0,0,1,15.09,3.8,26.5,26.5,0,0,1,10.4,10.81,33.33,33.33,0,0,1,3.73,15.93v2.94a33.41,33.41,0,0,1-3.67,15.87,26.25,26.25,0,0,1-10.35,10.76,30.12,30.12,0,0,1-15.07,3.87Zm13.18-53.31v42.72h6.37q7.74,0,11.83-5t4.17-14.46v-3.39q0-9.75-4-14.78t-11.82-5Z"/><path class="cls-7" d="M2386.32,2855.41H2361v17.23h29.7v10.59h-42.89v-64h42.81v10.67H2361v15.25h25.31Z"/><path class="cls-7" d="M2450.48,2883.23H2437.3l-25.67-42.1v42.1h-13.18v-64h13.18l25.71,42.18v-42.18h13.14Z"/><path class="cls-7" d="M2512.62,2875.14a22.88,22.88,0,0,1-10.07,6.62,42,42,0,0,1-14.41,2.35,28.54,28.54,0,0,1-14.57-3.63,24.16,24.16,0,0,1-9.67-10.52,37.06,37.06,0,0,1-3.49-16.22v-4.35a39.44,39.44,0,0,1,3.23-16.59,23.9,23.9,0,0,1,9.32-10.72,26.86,26.86,0,0,1,14.26-3.71q11.37,0,17.8,5.42t7.6,15.8h-12.83q-.89-5.49-3.89-8t-8.29-2.55q-6.72,0-10.24,5.06t-3.56,15v4.09q0,10.07,3.83,15.21t11.2,5.14q7.42,0,10.59-3.17v-11h-12v-9.71h25.18Z"/><path class="cls-7" d="M2537.31,2883.23h-13.18v-64h13.18Z"/><path class="cls-7" d="M2601.56,2883.23h-13.18l-25.67-42.1v42.1h-13.18v-64h13.18l25.71,42.18v-42.18h13.14Z"/><path class="cls-7" d="M2651.57,2855.41h-25.31v17.23H2656v10.59h-42.89v-64h42.8v10.67h-29.62v15.25h25.31Z"/><path class="cls-7" d="M2702.2,2855.41h-25.32v17.23h29.71v10.59H2663.7v-64h42.8v10.67h-29.62v15.25h25.32Z"/><path class="cls-7" d="M2738,2859.81h-10.5v23.42h-13.18v-64h23.77q11.34,0,17.49,5.05t6.15,14.28a19.66,19.66,0,0,1-2.83,10.92,19.3,19.3,0,0,1-8.59,7l13.84,26.15v.61H2750Zm-10.5-10.68h10.63c3.32,0,5.88-.84,7.7-2.53a9,9,0,0,0,2.72-7,9.68,9.68,0,0,0-2.57-7.12q-2.56-2.59-7.89-2.6h-10.59Z"/><path class="cls-8" d="M1853.19,2977.06l-12.66-33.82h3.4l10.78,29.83h.14l10.81-29.83H1869l-12.66,33.82Z"/><path class="cls-8" d="M1922,2977.06h-20.42v-33.82H1922v2.91h-17.23v12.16h16.36v2.86h-16.36v13H1922Z"/><path class="cls-8" d="M1954.85,2960.07c0-10.6,5.88-17.37,15.07-17.37,7.15,0,12.8,4.66,13.71,11.27h-3.21a10.4,10.4,0,0,0-10.5-8.29c-7.17,0-11.79,5.6-11.79,14.39s4.62,14.55,11.81,14.55c5.39,0,9.47-2.88,10.48-7.57h3.21c-1.19,6.59-6.37,10.55-13.71,10.55C1960.71,2977.6,1954.85,2970.78,1954.85,2960.07Z"/><path class="cls-8" d="M2024.52,2977.06v-30.91h-11.15v-2.91h25.55v2.91h-11.18v30.91Z"/><path class="cls-8" d="M2098.86,2960.16c0,10.71-5.93,17.44-15.37,17.44s-15.35-6.73-15.35-17.44,5.93-17.46,15.35-17.46S2098.86,2949.45,2098.86,2960.16Zm-27.44,0c0,8.86,4.66,14.46,12.07,14.46s12.09-5.6,12.09-14.46-4.69-14.48-12.09-14.48S2071.42,2951.28,2071.42,2960.16Z"/><path class="cls-8" d="M2135.82,2977.06h-3.19v-33.82h11.93c6.61,0,10.83,3.87,10.83,9.89a9.37,9.37,0,0,1-7.24,9.56l8.2,14.37h-3.75l-7.78-13.85h-9Zm0-16.69h8.48c4.93,0,7.78-2.62,7.78-7.15s-3-7.12-7.89-7.12h-8.37Z"/><path class="cls-8" d="M2228,2977.06v-33.82h3.19v33.82Z"/><path class="cls-8" d="M2286.46,2977.06h-20.13v-33.82h3.19v30.91h16.94Z"/><path class="cls-8" d="M2339.92,2977.06h-20.13v-33.82H2323v30.91h17Z"/><path class="cls-8" d="M2374.72,2965.06c0,5.67,3.7,9.56,9.89,9.56s9.89-3.89,9.89-9.56v-21.82h3.21v22c0,7.29-5,12.35-13.1,12.35s-13.08-5.06-13.08-12.35v-22h3.19Z"/><path class="cls-8" d="M2434.38,2967.87c.36,4.06,4.18,6.82,9.47,6.82,5.07,0,8.7-2.76,8.7-6.56,0-3.16-2.18-5-7.2-6.31l-4.19-1.07c-6.26-1.6-9-4.25-9-8.7,0-5.46,4.92-9.35,11.58-9.35s11.41,3.89,11.6,9.26h-3.21c-.3-3.82-3.68-6.35-8.48-6.35s-8.16,2.6-8.16,6.32c0,2.91,2.11,4.62,7.08,5.89l3.65.93c6.8,1.72,9.66,4.32,9.66,9,0,5.93-4.78,9.82-12.26,9.82-7.08,0-12-3.92-12.4-9.73Z"/><path class="cls-8" d="M2498,2977.06v-30.91h-11.16v-2.91h25.55v2.91H2501.2v30.91Z"/><path class="cls-8" d="M2548.4,2977.06h-3.19v-33.82h11.93c6.61,0,10.83,3.87,10.83,9.89a9.37,9.37,0,0,1-7.24,9.56l8.2,14.37h-3.75l-7.78-13.85h-9Zm0-16.69h8.48c4.93,0,7.79-2.62,7.79-7.15s-3-7.12-7.9-7.12h-8.37Z"/><path class="cls-8" d="M2620.7,2966.7h-14.2l-3.75,10.36h-3.4l12.65-33.82h3.19l12.63,33.82h-3.37Zm-13.24-2.77h12.28l-6.07-16.73h-.14Z"/><path class="cls-8" d="M2664.48,2977.06v-30.91h-11.16v-2.91h25.55v2.91h-11.18v30.91Z"/><path class="cls-8" d="M2711.7,2977.06v-33.82h3.18v33.82Z"/><path class="cls-8" d="M2779.38,2960.16c0,10.71-5.93,17.44-15.37,17.44s-15.36-6.73-15.36-17.44,5.93-17.46,15.36-17.46S2779.38,2949.45,2779.38,2960.16Zm-27.44,0c0,8.86,4.66,14.46,12.07,14.46s12.09-5.6,12.09-14.46-4.69-14.48-12.09-14.48S2751.94,2951.28,2751.94,2960.16Z"/><path class="cls-8" d="M2813.15,2977.06v-33.82h3.16l19.83,28.24h.17v-28.24h3.16v33.82h-3.09l-19.9-28.27h-.17v28.27Z"/><ellipse class="cls-9" cx="2546.45" cy="2448.93" rx="237.63" ry="84.27"/><ellipse class="cls-9" cx="1262.44" cy="2345.46" rx="466.47" ry="51.17"/><rect class="cls-9" x="732.21" y="2210.24" width="3260.03" height="20.43"/><path class="cls-10" d="M3278.16,623.16a94.75,94.75,0,0,0-94.76-94.75H1530a94.75,94.75,0,0,0-94.75,94.75V673H3278.16Z"/><path class="cls-11" d="M1435.23,673V1829.51a94.76,94.76,0,0,0,94.75,94.76H3183.4a94.76,94.76,0,0,0,94.76-94.76V673Z"/><rect class="cls-6" x="1569.51" y="1408.16" width="86.91" height="326.42"/><rect class="cls-6" x="1722.12" y="1450.55" width="86.91" height="284.03"/><rect class="cls-6" x="1874.74" y="1535.34" width="86.91" height="199.25"/><rect class="cls-6" x="2027.35" y="1471.75" width="86.91" height="262.84"/><rect class="cls-6" x="2179.97" y="1535.34" width="86.91" height="199.25"/><rect class="cls-6" x="2332.58" y="1471.75" width="86.91" height="262.84"/><rect class="cls-6" x="1537.71" y="1762.14" width="915.68" height="12.72"/><path class="cls-6" d="M2270.51,771.72h914.8a18.16,18.16,0,0,1,18.16,18.16V1159.7a18.17,18.17,0,0,1-18.17,18.17H2270.51a18.17,18.17,0,0,1-18.17-18.17V789.88A18.16,18.16,0,0,1,2270.51,771.72Z"/><path class="cls-12" d="M3178,989.17v154.37a12.49,12.49,0,0,1-12.51,12.46H2286.87a12.48,12.48,0,0,1-12.5-12.46V804.46c81.14,0,121.55,30.34,145.23,70.19,1.55,2.55,3,5.14,4.32,7.81,40.08,75.83,28,179.77,116.13,179.77a36.07,36.07,0,0,0,9.3-1.16,25.67,25.67,0,0,0,5.42-1.77c59.28-25,50-202.14,155.48-200.87,22.53.28,39.36,8.91,52.64,22.7,1.27,1.38,2.55,2.76,3.76,4.26,47.22,55.41,47.88,178.89,120.38,201.3,26.14,8.09,49.22-2.87,72-21,1.44-1.17,2.93-2.32,4.37-3.6,48.21-40,96.15-108.43,170.54-91.66,2.15.5,4.32,1,6.53,1.67A154.68,154.68,0,0,1,3178,989.17Z"/><path class="cls-13" d="M3178,958c-15.78.23-27.85,5.54-37.53,14.13-17.93,15.87-27.56,43-37,69.51-14.11,39.69-28.66,80.65-71.23,80.65-2.27,0-4.65-.12-7.08-.34-27.74-2.71-48.16-25.29-66.15-56.23-11.18-19.15-21.42-41.57-31.83-64.53-29.44-64.6-59.94-131.41-116.07-133-.66,0-1.27-.05-1.88-.05-17,0-30.89,6.47-42.62,17.21-23.74,21.64-38.86,60.66-53.63,98.85-21.87,56.52-44.45,115-95.43,116.13-36.64.78-53.3-13.07-68.24-39.3-5.76-10.19-11.29-22.25-17.61-36-11.51-25.24-25.9-56.63-49.7-93.16-16-24.46-36.31-40-58.12-49.42-58.78-25.63-128-6.87-149.55.17v-5.82c23.13-7.31,87.78-23.86,145.23-2.16,25.08,9.47,48.77,26.23,67,54.24,24.08,36.81,38.53,68.42,50.16,93.82,6.53,14.28,12.11,26.52,18,36.59,14.06,24.3,29.51,36.31,62.71,35.53,47.27-1.1,68.19-55.24,90.39-112.57,15.05-38.92,30.39-78.66,55-101.13,13.06-11.9,28.72-19,48.38-18.44,59.67,1.61,90.82,70,121,136.22,10.29,22.47,20.26,44.44,31.16,63.21,17.27,30,36.65,51.75,62.32,54.3,43.84,4.32,57.79-35,72.58-76.66,9.18-26,18.58-52.41,35.64-69.3,10.84-10.84,24.85-17.71,43.95-18Z"/><rect class="cls-6" x="1520.61" y="777.24" width="601.53" height="44.13" rx="22.07"/><rect class="cls-6" x="1520.61" y="873.03" width="601.53" height="44.13" rx="22.07"/><rect class="cls-6" x="1520.61" y="968.83" width="601.53" height="44.13" rx="22.07"/><rect class="cls-6" x="1520.61" y="1064.62" width="601.53" height="44.13" rx="22.07"/><rect class="cls-6" x="1520.61" y="1160.42" width="601.53" height="44.13" rx="22.07"/><path class="cls-14" d="M3065.4,1534c-22.6-100.11-112-174.91-219-174.91v224.55Z"/><path class="cls-6" d="M2846.43,1583.67V1359.12c-124,0-224.55,100.54-224.55,224.55s100.53,224.54,224.55,224.54S3071,1707.68,3071,1583.67a225.51,225.51,0,0,0-5.57-49.64Z"/><circle class="cls-12" cx="2846.43" cy="1587.44" r="171.63"/><circle class="cls-6" cx="2900.46" cy="600.72" r="24.7"/><circle class="cls-6" cx="3018.37" cy="600.72" r="24.7"/><circle class="cls-6" cx="3136.28" cy="600.72" r="24.7"/><path class="cls-13" d="M1018.81,2226.6s-38.91,77.47-108.13,106.26S744.4,2325.38,690,2282.61,582.76,2179,577.5,2133.7s86-27.46,86-27.46-40.34-55.09-57.12-94.45,2.88-80.41,58-56l55.15,24.45s-42.29-85.65-41.53-139.14,32.29-133.71,91.72-77.05,65.52,175.45,65.52,175.45,13.23-50.63,32.05-87.67,57.91-32.23,75.94,19.38,24.94,125.52,24.94,125.52,17.23-57,45.36-48,44.53,75.88,39.81,141.46S1018.81,2226.6,1018.81,2226.6Z"/><path class="cls-15" d="M1006.49,2087.91s-2.06-282.14-218.2-382.64c0,0-98.92,237,51.28,440.14s119.45,156,119.45,156Z"/><line class="cls-16" x1="841.65" y1="1837.26" x2="964.62" y2="2256.27"/><rect class="cls-17" x="3362.04" y="669.63" width="702.99" height="898.94"/><rect class="cls-18" x="3377.07" y="669.63" width="720.13" height="898.94"/><rect class="cls-17" x="3362.04" y="1568.57" width="702.99" height="64.05"/><rect class="cls-18" x="3430.65" y="1568.57" width="720.13" height="64.05"/><rect class="cls-19" x="3335.92" y="804.07" width="802.43" height="630.07" transform="translate(4856.23 -2618.02) rotate(90)"/><polygon class="cls-6" points="3499.45 1520.32 3763.73 717.89 3888.48 717.89 3624.2 1520.32 3499.45 1520.32"/><path class="cls-20" d="M3442.94,1248.07a3.33,3.33,0,0,1-3.21-3.44V749.29a3.22,3.22,0,1,1,6.43,0v495.34A3.33,3.33,0,0,1,3442.94,1248.07Z"/><polygon class="cls-6" points="3651 1520.32 3915.28 717.89 3963.92 717.89 3699.64 1520.32 3651 1520.32"/><rect class="cls-17" x="3648.09" y="1116.25" width="802.43" height="5.72" transform="translate(5168.41 -2930.2) rotate(90)"/><polygon class="cls-17" points="4107.84 779.63 3404.85 779.63 3400.7 736.65 4103.7 736.65 4107.84 779.63"/><polygon class="cls-17" points="4107.84 811.09 3404.85 811.09 3400.7 768.11 4103.7 768.11 4107.84 811.09"/><polygon class="cls-17" points="4107.84 848.84 3404.85 848.84 3400.7 805.86 4103.7 805.86 4107.84 848.84"/><polygon class="cls-17" points="4107.84 890.85 3404.85 890.85 3400.7 847.87 4103.7 847.87 4107.84 890.85"/><polygon class="cls-17" points="4107.84 941.19 3404.85 941.19 3400.7 898.21 4103.7 898.21 4107.84 941.19"/><polygon class="cls-17" points="4107.84 997.82 3404.85 997.82 3400.7 954.84 4103.7 954.84 4107.84 997.82"/><rect class="cls-21" x="886.51" y="1604.14" width="842.4" height="156.33" rx="10.31"/><ellipse class="cls-6" cx="970.89" cy="1682.3" rx="17.84" ry="20.91"/><ellipse class="cls-6" cx="1045.76" cy="1682.3" rx="17.84" ry="20.91"/><ellipse class="cls-4" cx="1120.62" cy="1682.3" rx="17.84" ry="20.91"/><rect class="cls-12" x="1510.03" y="1642.78" width="20.56" height="79.76" rx="1.85"/><rect class="cls-12" x="1543.9" y="1642.78" width="20.56" height="79.76" rx="1.85"/><rect class="cls-12" x="1577.77" y="1642.78" width="20.56" height="79.76" rx="1.85"/><rect class="cls-12" x="1611.65" y="1642.78" width="20.56" height="79.76" rx="1.85"/><rect class="cls-22" x="919.63" y="1760.47" width="774.81" height="28.18"/><rect class="cls-21" x="886.51" y="1788.65" width="842.4" height="156.33" rx="10.31"/><ellipse class="cls-6" cx="970.89" cy="1866.82" rx="17.84" ry="20.91"/><ellipse class="cls-4" cx="1045.76" cy="1866.82" rx="17.84" ry="20.91"/><ellipse class="cls-4" cx="1120.62" cy="1866.82" rx="17.84" ry="20.91"/><rect class="cls-12" x="1510.56" y="1826.76" width="20.56" height="79.76" rx="1.85"/><rect class="cls-12" x="1544.43" y="1826.76" width="20.56" height="79.76" rx="1.85"/><rect class="cls-12" x="1578.3" y="1826.76" width="20.56" height="79.76" rx="1.85"/><rect class="cls-12" x="1611.65" y="1827.29" width="20.56" height="79.76" rx="1.85"/><rect class="cls-22" x="919.63" y="1944.98" width="774.81" height="28.18"/><rect class="cls-21" x="886.51" y="1973.16" width="842.4" height="156.33" rx="10.31"/><ellipse class="cls-6" cx="970.89" cy="2051.33" rx="17.84" ry="20.91"/><ellipse class="cls-6" cx="1045.76" cy="2051.33" rx="17.84" ry="20.91"/><ellipse class="cls-4" cx="1120.62" cy="2051.33" rx="17.84" ry="20.91"/><rect class="cls-12" x="1510.56" y="2011.27" width="20.56" height="79.76" rx="1.85"/><rect class="cls-12" x="1544.43" y="2011.27" width="20.56" height="79.76" rx="1.85"/><rect class="cls-12" x="1578.3" y="2011.27" width="20.56" height="79.76" rx="1.85"/><rect class="cls-12" x="1612.17" y="2011.27" width="20.56" height="79.76" rx="1.85"/><rect class="cls-22" x="919.63" y="2129.49" width="774.81" height="28.18"/><rect class="cls-21" x="886.51" y="2157.67" width="842.4" height="156.33" rx="10.31"/><ellipse class="cls-6" cx="970.89" cy="2235.84" rx="17.84" ry="20.91"/><ellipse class="cls-6" cx="1045.76" cy="2235.84" rx="17.84" ry="20.91"/><ellipse class="cls-4" cx="1120.62" cy="2235.84" rx="17.84" ry="20.91"/><rect class="cls-12" x="1510.56" y="2195.78" width="20.56" height="79.76" rx="1.85"/><rect class="cls-12" x="1544.43" y="2195.78" width="20.56" height="79.76" rx="1.85"/><rect class="cls-12" x="1578.3" y="2195.78" width="20.56" height="79.76" rx="1.85"/><rect class="cls-12" x="1612.17" y="2195.78" width="20.56" height="79.76" rx="1.85"/><rect class="cls-22" x="919.63" y="2314" width="774.81" height="28.18"/><rect class="cls-12" x="3623.02" y="1828.19" width="217.3" height="96.08"/><rect class="cls-23" x="3710.89" y="1924.27" width="217.3" height="96.08"/><circle class="cls-24" cx="988.73" cy="852.57" r="266.93"/><circle class="cls-12" cx="988.73" cy="852.57" r="244.64"/><path class="cls-25" d="M988.73,860.22a7.63,7.63,0,0,1-5.15-2L850.83,737.5a7.66,7.66,0,1,1,10.3-11.33l127.7,116.14,98.23-85.85A7.66,7.66,0,1,1,1097.14,768L993.77,858.33A7.64,7.64,0,0,1,988.73,860.22Z"/><rect class="cls-25" x="980.39" y="1039.76" width="16.03" height="42.08"/><rect class="cls-25" x="980.39" y="623.29" width="16.03" height="42.08"/><rect class="cls-25" x="772.15" y="831.53" width="16.03" height="42.08" transform="translate(1632.73 72.4) rotate(90)"/><rect class="cls-25" x="1188.62" y="831.53" width="16.03" height="42.08" transform="translate(2049.2 -344.07) rotate(90)"/><line class="cls-26" x1="988.73" y1="857.41" x2="1053.53" y2="1052.29"/><circle class="cls-24" cx="988.73" cy="852.57" r="28.22"/><circle class="cls-2" cx="988.73" cy="852.57" r="16.62"/><rect class="cls-27" x="1170.9" y="1114.49" width="62.63" height="274.35" rx="31.31" transform="translate(445.26 -310.06) rotate(17.99)"/><path class="cls-27" d="M1155.69,1324.66s-168.83,46.76-183,41.64-59.47-19.29-86.3,7.3-19.1,44.61,22.75,35.24,40.18,5.45,69.76-11.06c0,0,106.13,7.57,199.89-15.48Z"/><path class="cls-27" d="M1199.86,1014.47l34.72,11a73.74,73.74,0,0,0,2.15,22.35c-9,2.61-22.53,10.35-31.77,32.87-2.21-10-7.23-24.21-18.59-36.2Z"/><path class="cls-1" d="M1124.39,928.77s-58-9-62.23-72.76c0,0,27.1,7.78,57,3.26s115.25-66.07,168.11,34.63S1225,1039.09,1225,1039.09l-33.45-23.75Z"/><g class="cls-28"><path class="cls-29" d="M1106.43,928.4s-12.55-32.62,23.33-29.61,60.72,33.62,72.52,56.7,47.42,59.22,77.27,50.94l-30.1,36.38-92.59,4.79-40.33-87.11Z"/></g><path class="cls-30" d="M887.76,1444.64l-17-4.19s-10.7,23.55-9,61.85,21.08,69.25,21.08,69.25,24.25-31.61,24.75-52.35S887.76,1444.64,887.76,1444.64Z"/><path class="cls-27" d="M636.1,1713.61c8.23-4.46,15.61-13.14,24.55-21.62,48.68-46.17,109.06-205.58,138.17-226.15s89.82-16.06,89.82-16.06L913.73,1502s-64.84,60.25-115.92,125.45C744.29,1695.76,686.92,1754,686.92,1754,673.62,1752.4,649.32,1747.3,636.1,1713.61Z"/><path class="cls-31" d="M515.29,1730.79c8.53-17.06,22.59-18.56,44.16-14.55,17.17,3.2,44.63,14.7,76.65-2.63,13.22,33.69,37.52,38.79,50.82,40.41h0l-33.63,59.07c-6,11.86-21.09,18.06-32.72,11.64-26.43-14.6-62.33-32.58-84.7-42.75C502.75,1766.93,506.76,1747.86,515.29,1730.79Z"/><path class="cls-32" d="M1154.77,1463.23,1120,1435.46l-249.24,5s46.17,30.74,12,131.1c0,0,91.76,26.16,157.28,28.84s196.69-3,223.43-41.48Z"/><path class="cls-31" d="M928,1460.94l-9.12-3.1s-11.95,18.79-11.7,51.4,8.61,68.59,23.75,79.71l32.45-56.87-17.81-57.46Z"/><path class="cls-3" d="M726.83,1804.93c.69-.42,1.38-.81,2.07-1.25,25.42-16.06,45.5-194,56.2-246.22s44.16-79.62,87-85.65a536.47,536.47,0,0,1,82.3-4.68v116.42s-81-16.06-83.64,4c-7.36,48.84-92.18,239.53-92.18,239.53l-2.45,7.79C762.39,1833.57,743.06,1827.3,726.83,1804.93Z"/><path class="cls-31" d="M604.45,1841.82c10.7-27.44,27.43-28.77,51.52-23.42,23.43,5.21,46.23,1.51,70.86-13.47,16.23,22.37,35.56,28.64,49.28,30l-21.24,67.48A18.12,18.12,0,0,1,731,1913.83c-20.4-7.9-53-19.86-69.72-22.5C635.9,1887.31,593.74,1869.25,604.45,1841.82Z"/><path class="cls-25" d="M1160.79,1480.56,1126,1452.79l-207.09,5S965.09,1488.59,931,1589c0,0,93,19.4,158.57,22.08s153.25,3.65,180-34.79Z"/><path class="cls-2" d="M1246.83,1082.83l5.66-5.57s22.94-6.47,45.27,37.18,72.77,170.87,46.67,291.31-74.91,170.49-74.91,170.49-149.54,0-149.54-141.39c0,0,81.24-31.11,75.06-135.49s-13.63-111.16,11.68-205.95Z"/><g class="cls-33"><path class="cls-34" d="M1156.11,1262.1l52.21-7.55,64.57-86.41s28.26,146.48-20.34,245.51S1120,1523.4,1120,1523.4l-25.76-117Z"/></g><rect class="cls-3" x="1178.13" y="1130.03" width="62.63" height="274.35" rx="31.31" transform="translate(450.41 -311.54) rotate(17.99)"/><path class="cls-3" d="M1170.6,1338.19s-168.83,46.76-183,41.64-59.47-19.28-86.3,7.31-19.1,44.61,22.76,35.23,40.17,5.46,69.75-11.06c0,0,98.17,9.63,191.94-13.42Z"/><rect class="cls-1" x="869.05" y="1429.07" width="237.39" height="25.43" rx="7.72" transform="translate(1975.49 2883.57) rotate(-180)"/><rect class="cls-1" x="697.04" y="1318.12" width="237.39" height="16.72" rx="6.83" transform="translate(1648.59 10.68) rotate(63.92)"/><path class="cls-3" d="M1236.73,1047.87a64.47,64.47,0,0,0,15.76,29.39s2,17.91-16.81,21.89-29-5.74-29-5.74a70.38,70.38,0,0,0-1.76-12.67C1214.2,1058.22,1227.78,1050.48,1236.73,1047.87Z"/><path class="cls-3" d="M1118.37,924.51s-14,155.06,32.61,153,53.45-53.19,53.45-53.19,16.56-4.77,13-28.1-20.07-15.56-21.82-12.8C1195.65,983.47,1164.78,909,1118.37,924.51Z"/><g class="cls-35"><path class="cls-27" d="M1216.33,1023.91s4.35-21.91-14.89-19.91-20.91-18.56-36.13-37.13-26.93-37.47-51.52-27.6l-.5-23.25,57.37,4.51,50,59.05.5,36.3Z"/></g><path class="cls-5" d="M2458.2,2415.86s-7.64,20.37-18.82,30.78c-62.56-25.73-119.84-66.08-141.26-82,1.23-4.84,3.74-10.11,7.22-15.84,6.49-10.71,24.67-41.84,37.1-63.23,5.17,10.56,18.81,28.16,54.35,38.86-11.55,26.85,25,53.78,45.3,67C2462.88,2405,2458.2,2415.86,2458.2,2415.86Z"/><path class="cls-27" d="M2413.16,2293.48s-1,1.39-15.4,28.91c-.35.68-.69,1.37-1,2.06-35.54-10.7-49.18-28.3-54.35-38.86,7.19-12.38,12.48-21.47,12.48-21.47Z"/><path class="cls-1" d="M2439.38,2446.64a22.68,22.68,0,0,1-8.79,5.4c-15.77,4.63-109.24-53.37-123.21-63.41-9.24-6.62-11.65-14.5-9.26-24C2319.54,2380.56,2376.82,2420.91,2439.38,2446.64Z"/><path class="cls-5" d="M2750.84,2411.1s2.15,21.65-3.27,35.94c-67.49,4.59-136.71-6.28-163-11.06a60.33,60.33,0,0,1-.53-17.4c1.09-12.48,3.62-48.44,5.32-73.12,9.3,7.19,29.32,16.94,65.93,10.82,1.51,29.18,46.22,37.17,70.26,40C2750.23,2399.29,2750.84,2411.1,2750.84,2411.1Z"/><path class="cls-3" d="M2656.32,2321.26s-.28,1.69-1,32.74c0,.77,0,1.53.05,2.28-36.61,6.12-56.63-3.63-65.93-10.82,1-14.28,1.69-24.78,1.69-24.78Z"/><path class="cls-1" d="M2747.57,2447a22.7,22.7,0,0,1-5.5,8.73c-12.09,11.12-121.58.43-138.54-2.39-11.22-1.85-16.87-7.85-18.91-17.4C2610.86,2440.76,2680.08,2451.63,2747.57,2447Z"/><polygon class="cls-2" points="2858.1 1184.03 2715.67 1129.69 2644.43 1389.94 2774.12 1449.94 2858.1 1184.03"/><path class="cls-3" d="M2602.68,976.71s2.47,86.45-11.12,109.91-34,15.44-42.6-10.5V991.53Z"/><g class="cls-36"><path class="cls-27" d="M2606.49,985.11s-31.22,22.7-42.43,40.56c-8.38,13.34-4.62,69.57-4.62,69.57l-20.7-9.69s-.66-38.87,0-58.82,14.44-47.52,14.44-47.52,19-20.74,28.89-23.83,17.06,0,17.06,0Z"/></g><path class="cls-27" d="M2559.69,1086s-7.74,41.63,3.47,72c0,0-9.07,16.55-28,17.61s-28.55-13.87-28.55-13.87,5.07-19.75,0-52Z"/><path class="cls-27" d="M2421.22,1349s-35,37-20.17,60.51,30.46,52.69,30.46,52.69l-2.88,64.62s-79.85-86.44-85.2-115.26,13.17-64.62,30.87-91.79Z"/><path class="cls-4" d="M2550.81,1786.19V1969s-30.87,135.84-75.33,233.39-53.1,105-53.1,105-58,4.94-87.68-37.05c0,0,91.39-232.16,92.62-318.6s-19.76-219.81,0-289a77.19,77.19,0,0,1,8.65-23.87l88.91,9.05Z"/><g class="cls-37"><path class="cls-38" d="M2409.05,1669.78s54.08,139.6,60.26,228S2483,2127.5,2454.54,2260l117.33-269.47v-232.7l-47-110-102.5-19.31Z"/></g><path class="cls-4" d="M2638.08,1647.88l16.46,5.75s17.29,149.85,23.47,259.76-8.65,404.43-8.65,404.43-51.86,34.59-97.55,0c0,0,6.17-183.39-8.65-264.07s-102.91-364.74-98.79-400.12Z"/><g class="cls-39"><path class="cls-40" d="M2561.93,1657.4s-11.12,47.79,14.81,153.74,38.29,184.65,39.52,271.63-14.82,277.78-14.82,277.78l-39.51-6.45-130.45-671,53.88-97.38Z"/></g><path class="cls-5" d="M2563.16,1158.05s74,28.34,81.38,66.62,10,429,10,429-51.86,40.36-135.84,31.3-88.91-40.34-88.91-40.34-.82-262.62,4.12-283.2c0,0-42.81,0-65-39.11,0,0,46.82-111.35,63.8-142,21.2-38.29,73.92-27.84,73.92-27.84S2524,1184.79,2563.16,1158.05Z"/><g class="cls-41"><path class="cls-42" d="M2602.94,1222.37s-21.12-11.94-25.64,8.23-32.24,172.9,18.28,235.87,65.28,42.4,78.24,7S2637.64,1242.54,2602.94,1222.37Z"/><path class="cls-42" d="M2517.88,1151.13s-23.87-4.48-27.17,65,4.12,487.13,11.53,498.13-89.07-40.88-89.07-40.88-147.21-380.35-139.8-391.05,228.87-155.6,228.87-155.6Z"/></g><path class="cls-3" d="M2673.05,1356.48s6.57,54.9,18.75,71.36,111.3-61.13,111.3-61.13-1.94-66.25,39.46-92.55,11.2,77.45-5.85,105.21c0,0-62.83,87.19-122.75,113s-67.07-2.92-76.89-18-26.86-103.27-26.86-103.27Z"/><g class="cls-43"><path class="cls-27" d="M2679.51,1380.7s-45.14,3.83-39.23,32.12,2.62,68.52,48.25,68.64,77.62-24.22,77.62-24.22L2725,1508.61h-62l-41.71-18.92s-27.22-66.82-27.22-71,8.85-55.37,8.85-55.37l67.56-15.07,10.68,22.94Z"/></g><path class="cls-5" d="M2676.19,1353.51s-12.49-104.07-28.38-136.7-54-30-65.55,0-9.68,160.61-9.68,160.61S2636,1408.9,2676.19,1353.51Z"/><path class="cls-1" d="M2600.52,980.77s14.81-13.33,18-38.33,8.27-69.46-28.2-75.34-39.31,11.32-55.49,13.68-97.84-1.18-122.15,71.36c-16.84,50.26,19.68,99.7,49.09,129.7s31.76,30.88,31.76,30.88,21,7,47.06-3.23l14-21.22s5-6.28-.48-22-6.56-30.39.3-39.41,14.6-25.09,15-38C2569.45,988.81,2583.17,994.3,2600.52,980.77Z"/><rect class="cls-44" x="2946.83" y="895.18" width="950.53" height="662.31" rx="57.75"/><path class="cls-10" d="M3897.36,951.94a56.77,56.77,0,0,0-56.77-56.76H3017.71A56.76,56.76,0,0,0,2961,951.94v34.15h936.41Z"/><path class="cls-45" d="M2961,986.09v501.74a56.76,56.76,0,0,0,56.76,56.76h822.88a56.77,56.77,0,0,0,56.77-56.76V986.09Z"/><circle class="cls-6" cx="3618.37" cy="940.63" r="19.05"/><circle class="cls-6" cx="3708.96" cy="940.63" r="19.05"/><circle class="cls-6" cx="3799.55" cy="940.63" r="19.05"/><path class="cls-4" d="M3326.35,1056H3148.46c-3.62,0-6.55-3.45-6.55-7.71h0c0-4.25,2.93-7.7,6.55-7.7h177.89c3.61,0,6.54,3.45,6.54,7.7h0C3332.89,1052.59,3330,1056,3326.35,1056Z"/><path class="cls-15" d="M3297,1125.08H3119.13c-3.62,0-6.55-3.45-6.55-7.7h0c0-4.26,2.93-7.71,6.55-7.71H3297c3.61,0,6.55,3.45,6.55,7.71h0C3303.57,1121.63,3300.63,1125.08,3297,1125.08Z"/><path class="cls-4" d="M3674.25,1125.08H3368.77c-3.61,0-6.55-3.45-6.55-7.7h0c0-4.26,2.94-7.71,6.55-7.71h305.48c3.62,0,6.55,3.45,6.55,7.71h0C3680.8,1121.63,3677.87,1125.08,3674.25,1125.08Z"/><path class="cls-4" d="M3480.16,1056h-89.9c-3.62,0-6.55-3.45-6.55-7.71h0c0-4.25,2.93-7.7,6.55-7.7h89.9c3.62,0,6.55,3.45,6.55,7.7h0C3486.71,1052.59,3483.78,1056,3480.16,1056Z"/><path class="cls-4" d="M3638,1056h-89.91c-3.61,0-6.54-3.45-6.54-7.71h0c0-4.25,2.93-7.7,6.54-7.7H3638c3.61,0,6.54,3.45,6.54,7.7h0C3644.52,1052.59,3641.59,1056,3638,1056Z"/><path class="cls-4" d="M3238.15,1194.12H3121.28c-3.61,0-6.54-3.45-6.54-7.7h0c0-4.26,2.93-7.71,6.54-7.71h116.87c3.61,0,6.54,3.45,6.54,7.71h0C3244.69,1190.67,3241.76,1194.12,3238.15,1194.12Z"/><path class="cls-15" d="M3480.5,1194.12H3302.61c-3.62,0-6.55-3.45-6.55-7.7h0c0-4.26,2.93-7.71,6.55-7.71H3480.5c3.62,0,6.55,3.45,6.55,7.71h0C3487.05,1190.67,3484.12,1194.12,3480.5,1194.12Z"/><path class="cls-4" d="M3610.22,1194.12h-66.43c-3.62,0-6.55-3.45-6.55-7.7h0c0-4.26,2.93-7.71,6.55-7.71h66.43c3.62,0,6.55,3.45,6.55,7.71h0C3616.77,1190.67,3613.84,1194.12,3610.22,1194.12Z"/><path class="cls-4" d="M3348.18,1263.17H3244c-3.62,0-6.55-3.45-6.55-7.71h0c0-4.25,2.93-7.7,6.55-7.7h104.23c3.61,0,6.54,3.45,6.54,7.7h0C3354.72,1259.72,3351.79,1263.17,3348.18,1263.17Z"/><path class="cls-4" d="M3597.48,1263.17H3419.59c-3.62,0-6.55-3.45-6.55-7.71h0c0-4.25,2.93-7.7,6.55-7.7h177.89c3.61,0,6.55,3.45,6.55,7.7h0C3604,1259.72,3601.09,1263.17,3597.48,1263.17Z"/><path class="cls-4" d="M3540.46,1332.21H3207.12c-3.62,0-6.55-3.45-6.55-7.7h0c0-4.26,2.93-7.71,6.55-7.71h333.34c3.61,0,6.54,3.45,6.54,7.71h0C3547,1328.76,3544.07,1332.21,3540.46,1332.21Z"/><path class="cls-4" d="M3789.76,1332.21H3588.4c-3.61,0-6.54-3.45-6.54-7.7h0c0-4.26,2.93-7.71,6.54-7.71h201.36c3.61,0,6.55,3.45,6.55,7.71h0C3796.31,1328.76,3793.37,1332.21,3789.76,1332.21Z"/><path class="cls-4" d="M3297,1401.26H3119.13c-3.62,0-6.55-3.45-6.55-7.71h0c0-4.25,2.93-7.7,6.55-7.7H3297c3.61,0,6.55,3.45,6.55,7.7h0C3303.57,1397.81,3300.63,1401.26,3297,1401.26Z"/><path class="cls-15" d="M3512.29,1401.26H3334.4c-3.62,0-6.55-3.45-6.55-7.71h0c0-4.25,2.93-7.7,6.55-7.7h177.89c3.61,0,6.55,3.45,6.55,7.7h0C3518.84,1397.81,3515.9,1401.26,3512.29,1401.26Z"/><path class="cls-4" d="M3529.42,1470.3H3259.23c-3.62,0-6.55-3.45-6.55-7.7h0c0-4.26,2.93-7.71,6.55-7.71h270.19c3.61,0,6.54,3.45,6.54,7.71h0C3536,1466.85,3533,1470.3,3529.42,1470.3Z"/><rect class="cls-4" x="3025.63" y="1040.63" width="13.09" height="15.41"/><rect class="cls-4" x="3025.63" y="1109.67" width="13.09" height="15.41"/><rect class="cls-4" x="3025.63" y="1178.71" width="13.09" height="15.41"/><rect class="cls-4" x="3025.63" y="1247.76" width="13.09" height="15.41"/><rect class="cls-4" x="3025.63" y="1316.8" width="13.09" height="15.41"/><rect class="cls-4" x="3025.63" y="1385.85" width="13.09" height="15.41"/><rect class="cls-4" x="3025.63" y="1454.89" width="13.09" height="15.41"/><path class="cls-4" d="M3721,1501.73l-47.71-23.86a4.77,4.77,0,0,1-2.44-4.33v-5.13a4.79,4.79,0,0,1,2.44-4.33l47.71-23.85c2.64-1.32,5.57,1,5.57,4.33v1.83a4.79,4.79,0,0,1-2.48,4.36l-32.77,15.87c-3.3,1.6-3.3,7.11,0,8.71l32.77,15.88a4.76,4.76,0,0,1,2.48,4.35v1.83C3726.55,1500.77,3723.62,1503.05,3721,1501.73Z"/><path class="cls-4" d="M3764.24,1426.76l-22,89.7a4.15,4.15,0,0,1-3.84,3.4h0c-2.67,0-4.59-3-3.85-6l22-89.69a4.16,4.16,0,0,1,3.85-3.4h0C3763.06,1420.75,3765,1423.75,3764.24,1426.76Z"/><path class="cls-4" d="M3825.49,1477.87l-47.72,23.86c-2.63,1.32-5.56-1-5.56-4.34v-1.83a4.76,4.76,0,0,1,2.48-4.35l32.76-15.88c3.3-1.6,3.3-7.11,0-8.71l-32.76-15.87a4.79,4.79,0,0,1-2.48-4.36v-1.83c0-3.37,2.93-5.65,5.56-4.33l47.72,23.85a4.81,4.81,0,0,1,2.43,4.33v5.13A4.78,4.78,0,0,1,3825.49,1477.87Z"/></g></g></svg>